<svg xmlns="http://www.w3.org/2000/svg" width="512" height="512" viewBox="0 0 512 512">
  <g fill="none" fill-rule="evenodd">
    <g transform="translate(39 158)">
      <path fill="#D3000D" d="M0,179.666667 L0,163.333333 L0,147 L0,130.666667 L0,114.333333 L0,98 L0,81.6666667 L0,65.3333333 L0,49 L0,32.6666667 L0,16.3333333 L0,0 L17.36,0 L17.36,16.3333333 L34.72,16.3333333 L52.08,16.3333333 L52.08,32.6666667 L69.44,32.6666667 L86.8,32.6666667 L86.8,49 L104.16,49 L121.52,49 L121.52,65.3333333 L138.88,65.3333333 L156.24,65.3333333 L156.24,81.6666667 L173.6,81.6666667 L190.96,81.6666667 L190.96,98 L190.96,114.333333 L173.6,114.333333 L156.24,114.333333 L156.24,130.666667 L138.88,130.666667 L121.52,130.666667 L121.52,147 L104.16,147 L86.8,147 L86.8,163.333333 L69.44,163.333333 L52.08,163.333333 L52.08,179.666667 L34.72,179.666667 L17.36,179.666667 L17.36,196 L0,196 L0,179.666667 Z"/>
      <path fill="#979797" d="M416.64,179.666667 L416.64,196 L399.28,196 L381.92,196 L364.56,196 L364.56,179.666667 L347.2,179.666667 L347.2,163.333333 L347.2,147 L347.2,130.666667 L347.2,114.333333 L347.2,98 L347.2,81.6666667 L347.2,65.3333333 L347.2,49 L347.2,32.6666667 L347.2,16.3333333 L364.56,16.3333333 L364.56,0 L381.92,0 L399.28,0 L416.64,0 L416.64,16.3333333 L434,16.3333333 L434,32.6666667 L434,49 L434,65.3333333 L434,81.6666667 L434,98 L434,114.333333 L434,130.666667 L434,147 L434,163.333333 L434,179.666667 L416.64,179.666667 Z M295.12,179.666667 L295.12,196 L277.76,196 L260.4,196 L243.04,196 L243.04,179.666667 L225.68,179.666667 L225.68,163.333333 L225.68,147 L225.68,130.666667 L225.68,114.333333 L225.68,98 L225.68,81.6666667 L225.68,65.3333333 L225.68,49 L225.68,32.6666667 L225.68,16.3333333 L243.04,16.3333333 L243.04,0 L260.4,0 L277.76,0 L295.12,0 L295.12,16.3333333 L312.48,16.3333333 L312.48,32.6666667 L312.48,49 L312.48,65.3333333 L312.48,81.6666667 L312.48,98 L312.48,114.333333 L312.48,130.666667 L312.48,147 L312.48,163.333333 L312.48,179.666667 L295.12,179.666667 Z"/>
    </g>
  </g>
</svg>
