<svg xmlns="http://www.w3.org/2000/svg" width="16" height="16" viewBox="0 0 16 16">
  <path fill="#000000" fill-rule="evenodd" d="M28.3333333,444.666667 L30.1111111,444.666667 L30.1111111,446.444444 L28.3333333,446.444444 L28.3333333,444.666667 Z M33.6666667,435.777778 L33.6666667,437.555556 L35.4444444,437.555556 L35.4444444,439.333333 L33.6666667,439.333333 L33.6666667,441.111111 L33.6666667,442.888889 L33.6666667,444.666667 L33.6666667,446.444444 L33.6666667,448.222222 L33.6666667,450 L31.8888889,450 L31.8888889,448.222222 L30.1111111,448.222222 L30.1111111,446.444444 L31.8888889,446.444444 L31.8888889,444.666667 L31.8888889,442.888889 L31.8888889,441.111111 L30.1111111,441.111111 L30.1111111,439.333333 L31.8888889,439.333333 L31.8888889,437.555556 L30.1111111,437.555556 L30.1111111,435.777778 L31.8888889,435.777778 L31.8888889,434 L33.6666667,434 L33.6666667,435.777778 Z M37.2222222,434 L39,434 L39,435.777778 L37.2222222,435.777778 L37.2222222,434 Z M35.4444444,435.777778 L37.2222222,435.777778 L37.2222222,437.555556 L35.4444444,437.555556 L35.4444444,435.777778 Z M30.1111111,442.888889 L28.3333333,442.888889 L28.3333333,444.666667 L26.5555556,444.666667 L26.5555556,442.888889 L26.5555556,441.111111 L26.5555556,439.333333 L28.3333333,439.333333 L28.3333333,441.111111 L30.1111111,441.111111 L30.1111111,442.888889 Z M24.7777778,444.666667 L26.5555556,444.666667 L26.5555556,446.444444 L24.7777778,446.444444 L24.7777778,444.666667 Z M23,446.444444 L24.7777778,446.444444 L24.7777778,448.222222 L23,448.222222 L23,446.444444 Z M28.3333333,437.555556 L30.1111111,437.555556 L30.1111111,439.333333 L28.3333333,439.333333 L28.3333333,437.555556 Z" transform="translate(-23 -434)"/>
</svg>
