<svg xmlns="http://www.w3.org/2000/svg" width="19" height="16" viewBox="0 0 19 16">
  <path fill="#000000" fill-rule="evenodd" d="M36.5714286,278.142857 L38.8571429,278.142857 L38.8571429,280.428571 L36.5714286,280.428571 L36.5714286,278.142857 Z M34.2857143,273.571429 L34.2857143,280.428571 L36.5714286,280.428571 L36.5714286,282.714286 L34.2857143,282.714286 L34.2857143,285 L32,285 L32,282.629714 L32,269 L34.2857143,269 L34.2857143,271.285714 L36.5714286,271.285714 L36.5714286,273.571429 L34.2857143,273.571429 Z M36.5714286,273.571429 L38.8571429,273.571429 L38.8571429,275.857143 L36.5714286,275.857143 L36.5714286,273.571429 Z M45.7142857,278.142857 L48,278.142857 L48,280.428571 L45.7142857,280.428571 L45.7142857,278.142857 Z M43.4285714,273.571429 L43.4285714,280.428571 L45.7142857,280.428571 L45.7142857,282.714286 L43.4285714,282.714286 L43.4285714,285 L41.1428571,285 L41.1428571,282.629714 L41.1428571,278.142857 L38.8571429,278.142857 L38.8571429,275.857143 L41.1428571,275.857143 L41.1428571,269 L43.4285714,269 L43.4285714,271.285714 L45.7142857,271.285714 L45.7142857,273.571429 L43.4285714,273.571429 Z M45.7142857,273.571429 L48,273.571429 L48,275.857143 L45.7142857,275.857143 L45.7142857,273.571429 Z M48,275.857143 L50.2857143,275.857143 L50.2857143,278.142857 L48,278.142857 L48,275.857143 Z" transform="translate(-32 -269)"/>
</svg>
