<svg xmlns="http://www.w3.org/2000/svg" xmlns:xlink="http://www.w3.org/1999/xlink" version="1.1" x="0px" y="0px" viewBox="0 0 100 125" enable-background="new 0 0 100 100" xml:space="preserve"><g><rect x="54" y="36" width="9" height="9"/><polygon points="72,63 63,63 63,72 72,72 72,81 81,81 81,27.333 81,18 72,18 72,27 63,27 63,36 72,36  "/><rect x="54" y="54" width="9" height="9"/><rect x="18" y="36" width="9" height="9"/><polygon points="36,63 27,63 27,72 36,72 36,81 45,81 45,54 54,54 54,45 45,45 45,27.333 45,18 36,18 36,27 27,27 27,36 36,36  "/><rect x="18" y="54" width="9" height="9"/><rect x="9" y="45" width="9" height="9"/></g><text x="0" y="115" fill="#000000" font-size="5px" font-weight="bold" font-family="'Helvetica Neue', Helvetica, Arial-Unicode, Arial, Sans-serif">Created by Dileep M</text><text x="0" y="120" fill="#000000" font-size="5px" font-weight="bold" font-family="'Helvetica Neue', Helvetica, Arial-Unicode, Arial, Sans-serif">from the Noun Project</text></svg>