<svg xmlns="http://www.w3.org/2000/svg" xmlns:xlink="http://www.w3.org/1999/xlink" version="1.1" x="0px" y="0px" viewBox="0 0 100 125" enable-background="new 0 0 100 100" xml:space="preserve"><g><rect x="36" y="54" width="9" height="9"/><polygon points="27,36 36,36 36,27 27,27 27,18 18,18 18,71.667 18,81 27,81 27,72 36,72 36,63 27,63  "/><rect x="36" y="36" width="9" height="9"/><rect x="72" y="54" width="9" height="9"/><polygon points="63,36 72,36 72,27 63,27 63,18 54,18 54,45 45,45 45,54 54,54 54,71.667 54,81 63,81 63,72 72,72 72,63 63,63  "/><rect x="72" y="36" width="9" height="9"/><rect x="81" y="45" width="9" height="9"/></g><text x="0" y="115" fill="#000000" font-size="5px" font-weight="bold" font-family="'Helvetica Neue', Helvetica, Arial-Unicode, Arial, Sans-serif">Created by Dileep M</text><text x="0" y="120" fill="#000000" font-size="5px" font-weight="bold" font-family="'Helvetica Neue', Helvetica, Arial-Unicode, Arial, Sans-serif">from the Noun Project</text></svg>