<svg xmlns="http://www.w3.org/2000/svg" xmlns:xlink="http://www.w3.org/1999/xlink" version="1.1" x="0px" y="0px" viewBox="0 0 100 125" enable-background="new 0 0 100 100" xml:space="preserve"><g><polygon points="18,47 18,38 9,38 9,47 9,56 9,65 18,65 18,56  "/><rect x="18" y="65" width="9" height="9"/><polygon points="63,56 63,47 63,38 54,38 54,47 54,56 54,65 63,65  "/><polygon points="72,29 72,38 72,47 72,56 72,65 72,74 81,74 81,65 81,56 81,47 81,38 81,29  "/><rect x="63" y="74" width="9" height="9"/><rect x="63" y="20" width="9" height="9"/><polygon points="36,20 27,20 27,29 36,29 36,38 36,47 36,56 36,65 36,74 27,74 27,83 36,83 36,92 45,92 45,83 45,74 45,65 45,56    45,47 45,38 45,29 45,20 45,11 36,11  "/><rect x="18" y="29" width="9" height="9"/></g><text x="0" y="115" fill="#000000" font-size="5px" font-weight="bold" font-family="'Helvetica Neue', Helvetica, Arial-Unicode, Arial, Sans-serif">Created by Dileep M</text><text x="0" y="120" fill="#000000" font-size="5px" font-weight="bold" font-family="'Helvetica Neue', Helvetica, Arial-Unicode, Arial, Sans-serif">from the Noun Project</text></svg>