<svg xmlns="http://www.w3.org/2000/svg" xmlns:xlink="http://www.w3.org/1999/xlink" version="1.1" x="0px" y="0px" viewBox="0 0 100 125" enable-background="new 0 0 100 100" xml:space="preserve"><g><polygon points="54,19 45,19 36,19 36,28 45,28 54,28 63,28 63,19  "/><rect x="63" y="28" width="9" height="9"/><polygon points="72,37 72,46 72,55 72,64 81,64 81,55 81,46 81,37  "/><rect x="63" y="64" width="9" height="9"/><polygon points="27,19 18,19 18,28 18,37 18,46 27,46 36,46 45,46 45,37 36,37 36,28 27,28  "/><rect x="27" y="64" width="9" height="9"/><polygon points="45,73 36,73 36,82 45,82 54,82 63,82 63,73 54,73  "/></g><text x="0" y="115" fill="#000000" font-size="5px" font-weight="bold" font-family="'Helvetica Neue', Helvetica, Arial-Unicode, Arial, Sans-serif">Created by Dileep M</text><text x="0" y="120" fill="#000000" font-size="5px" font-weight="bold" font-family="'Helvetica Neue', Helvetica, Arial-Unicode, Arial, Sans-serif">from the Noun Project</text></svg>