<svg xmlns="http://www.w3.org/2000/svg" xmlns:xlink="http://www.w3.org/1999/xlink" version="1.1" x="0px" y="0px" viewBox="0 0 100 125" enable-background="new 0 0 100 100" xml:space="preserve"><g><rect x="35" y="65" width="9" height="9"/><polygon points="62,20 62,11 53,11 53,20 44,20 44,29 53,29 53,38 44,38 44,47 53,47 53,56 53,65 53,74 44,74 44,83 53,83 53,92    62,92 62,83 62,74 62,65 62,56 62,47 62,38 71,38 71,29 62,29  "/><rect x="80" y="11" width="9" height="9"/><rect x="71" y="20" width="9" height="9"/><polygon points="44,56 44,47 35,47 35,38 26,38 26,47 26,56 26,65 35,65 35,56  "/><rect x="17" y="65" width="9" height="9"/><rect x="8" y="74" width="9" height="9"/><rect x="35" y="29" width="9" height="9"/></g><text x="0" y="115" fill="#000000" font-size="5px" font-weight="bold" font-family="'Helvetica Neue', Helvetica, Arial-Unicode, Arial, Sans-serif">Created by Dileep M</text><text x="0" y="120" fill="#000000" font-size="5px" font-weight="bold" font-family="'Helvetica Neue', Helvetica, Arial-Unicode, Arial, Sans-serif">from the Noun Project</text></svg>