<svg xmlns="http://www.w3.org/2000/svg" width="19" height="16" viewBox="0 0 19 16">
  <path fill="#000000" fill-rule="evenodd" d="M28.4285714,351.571429 L30.7142857,351.571429 L30.7142857,353.857143 L28.4285714,353.857143 L28.4285714,351.571429 Z M33,358.428571 L33,351.571429 L30.7142857,351.571429 L30.7142857,349.285714 L33,349.285714 L33,347 L35.2857143,347 L35.2857143,349.370286 L35.2857143,363 L33,363 L33,360.714286 L30.7142857,360.714286 L30.7142857,358.428571 L33,358.428571 Z M28.4285714,356.142857 L30.7142857,356.142857 L30.7142857,358.428571 L28.4285714,358.428571 L28.4285714,356.142857 Z M19.2857143,351.571429 L21.5714286,351.571429 L21.5714286,353.857143 L19.2857143,353.857143 L19.2857143,351.571429 Z M23.8571429,358.428571 L23.8571429,351.571429 L21.5714286,351.571429 L21.5714286,349.285714 L23.8571429,349.285714 L23.8571429,347 L26.1428571,347 L26.1428571,349.370286 L26.1428571,353.857143 L28.4285714,353.857143 L28.4285714,356.142857 L26.1428571,356.142857 L26.1428571,363 L23.8571429,363 L23.8571429,360.714286 L21.5714286,360.714286 L21.5714286,358.428571 L23.8571429,358.428571 Z M19.2857143,356.142857 L21.5714286,356.142857 L21.5714286,358.428571 L19.2857143,358.428571 L19.2857143,356.142857 Z M17,353.857143 L19.2857143,353.857143 L19.2857143,356.142857 L17,356.142857 L17,353.857143 Z" transform="translate(-17 -347)"/>
</svg>
