<svg xmlns="http://www.w3.org/2000/svg" width="16" height="16" viewBox="0 0 16 16">
  <path fill="#000000" fill-rule="evenodd" d="M41.1428571,47 L43.4285714,47 L43.4285714,49.2857143 L41.1428571,49.2857143 L38.8571429,49.2857143 L36.5714286,49.2857143 L36.5714286,47 L38.8571429,47 L41.1428571,47 Z M43.4285714,49.2857143 L45.7142857,49.2857143 L45.7142857,51.5714286 L43.4285714,51.5714286 L43.4285714,49.2857143 Z M45.7142857,51.5714286 L48,51.5714286 L48,53.8571429 L48,56.1428571 L48,58.4285714 L45.7142857,58.4285714 L45.7142857,56.1428571 L45.7142857,53.8571429 L45.7142857,51.5714286 Z M43.4285714,58.4285714 L45.7142857,58.4285714 L45.7142857,60.7142857 L43.4285714,60.7142857 L43.4285714,58.4285714 Z M34.2857143,47 L34.2857143,49.2857143 L36.5714286,49.2857143 L36.5714286,51.5714286 L38.8571429,51.5714286 L38.8571429,53.8571429 L36.5714286,53.8571429 L34.2857143,53.8571429 L32,53.8571429 L32,51.5714286 L32,49.2857143 L32,47 L34.2857143,47 Z M34.2857143,58.4285714 L36.5714286,58.4285714 L36.5714286,60.7142857 L34.2857143,60.7142857 L34.2857143,58.4285714 Z M38.8571429,60.7142857 L41.1428571,60.7142857 L43.4285714,60.7142857 L43.4285714,63 L41.1428571,63 L38.8571429,63 L36.5714286,63 L36.5714286,60.7142857 L38.8571429,60.7142857 Z" transform="translate(-32 -47)"/>
</svg>
