<svg xmlns="http://www.w3.org/2000/svg" width="15" height="16" viewBox="0 0 15 16">
  <path fill="#000000" fill-rule="evenodd" d="M33.7777778,161.111111 L33.7777778,162.888889 L33.7777778,164.666667 L32,164.666667 L32,162.888889 L32,161.111111 L32,159.333333 L33.7777778,159.333333 L33.7777778,161.111111 Z M33.7777778,164.666667 L35.5555556,164.666667 L35.5555556,166.444444 L33.7777778,166.444444 L33.7777778,164.666667 Z M42.6666667,162.888889 L42.6666667,164.666667 L40.8888889,164.666667 L40.8888889,162.888889 L40.8888889,161.111111 L40.8888889,159.333333 L42.6666667,159.333333 L42.6666667,161.111111 L42.6666667,162.888889 Z M44.4444444,157.555556 L46.2222222,157.555556 L46.2222222,159.333333 L46.2222222,161.111111 L46.2222222,162.888889 L46.2222222,164.666667 L46.2222222,166.444444 L44.4444444,166.444444 L44.4444444,164.666667 L44.4444444,162.888889 L44.4444444,161.111111 L44.4444444,159.333333 L44.4444444,157.555556 Z M42.6666667,166.444444 L44.4444444,166.444444 L44.4444444,168.222222 L42.6666667,168.222222 L42.6666667,166.444444 Z M42.6666667,155.777778 L44.4444444,155.777778 L44.4444444,157.555556 L42.6666667,157.555556 L42.6666667,155.777778 Z M37.3333333,155.777778 L37.3333333,154 L39.1111111,154 L39.1111111,155.777778 L39.1111111,157.555556 L39.1111111,159.333333 L39.1111111,161.111111 L39.1111111,162.888889 L39.1111111,164.666667 L39.1111111,166.444444 L39.1111111,168.222222 L39.1111111,170 L37.3333333,170 L37.3333333,168.222222 L35.5555556,168.222222 L35.5555556,166.444444 L37.3333333,166.444444 L37.3333333,164.666667 L37.3333333,162.888889 L37.3333333,161.111111 L37.3333333,159.333333 L37.3333333,157.555556 L35.5555556,157.555556 L35.5555556,155.777778 L37.3333333,155.777778 Z M33.7777778,157.555556 L35.5555556,157.555556 L35.5555556,159.333333 L33.7777778,159.333333 L33.7777778,157.555556 Z" transform="translate(-32 -154)"/>
</svg>
